<?xml version="1.0" encoding="UTF-8" standalone="no"?>
<svg
   xmlns:dc="http://purl.org/dc/elements/1.1/"
   xmlns:cc="http://creativecommons.org/ns#"
   xmlns:rdf="http://www.w3.org/1999/02/22-rdf-syntax-ns#"
   xmlns:svg="http://www.w3.org/2000/svg"
   xmlns="http://www.w3.org/2000/svg"
   xmlns:sodipodi="http://sodipodi.sourceforge.net/DTD/sodipodi-0.dtd"
   xmlns:inkscape="http://www.inkscape.org/namespaces/inkscape"
   version="1.1"
   id="svg4"
   sodipodi:docname="decor1.svg"
   width="38"
   height="7"
   inkscape:version="0.92.1 r15371">
  <metadata
     id="metadata10">
    <rdf:RDF>
      <cc:Work
         rdf:about="">
        <dc:format>image/svg+xml</dc:format>
        <dc:type
           rdf:resource="http://purl.org/dc/dcmitype/StillImage" />
        <dc:title></dc:title>
      </cc:Work>
    </rdf:RDF>
  </metadata>
  <defs
     id="defs8" />
  <sodipodi:namedview
     pagecolor="#ffffff"
     bordercolor="#666666"
     borderopacity="1"
     objecttolerance="10"
     gridtolerance="10"
     guidetolerance="10"
     inkscape:pageopacity="0"
     inkscape:pageshadow="2"
     inkscape:window-width="1920"
     inkscape:window-height="1027"
     id="namedview6"
     showgrid="false"
     inkscape:zoom="13.350176"
     inkscape:cx="29.783378"
     inkscape:cy="-1.7104598"
     inkscape:window-x="1912"
     inkscape:window-y="-8"
     inkscape:window-maximized="1"
     inkscape:current-layer="svg4" />
  <path
     d="M 34.728,7 C 32.921,7 31.457,5.433 31.457,3.5 31.457,1.567 32.921,0 34.728,0 36.535,0 38,1.567 38,3.5 38,5.433 36.535,7 34.728,7 Z M 17.616,6.596 c -1.599,0 -2.895,-1.386 -2.895,-3.096 0,-1.71 1.296,-3.096 2.895,-3.096 1.598,0 2.894,1.386 2.894,3.096 0,1.71 -1.296,3.096 -2.894,3.096 z M 2.516,6.193 C 1.126,6.193 0,4.987 0,3.5 0,2.013 1.126,0.808 2.516,0.808 c 1.39,0 2.517,1.205 2.517,2.692 0,1.487 -1.127,2.693 -2.517,2.693 z"
     id="path2"
     inkscape:connector-curvature="0"
     style="fill-rule:evenodd" />
</svg>
