<svg version="1.1" id="Layer_1" xmlns="http://www.w3.org/2000/svg" xmlns:xlink="http://www.w3.org/1999/xlink" viewBox="0 0 218.1 153.7" enable-background="new 0 0 218.1 153.7" xml:space="preserve">
<g>
	<defs>
		<rect id="SVGID_1_" width="218.1" height="153.7"/>
	</defs>
	<clipPath id="SVGID_2_">
		<use xlink:href="#SVGID_1_"  overflow="visible"/>
	</clipPath>
	<path clip-path="url(#SVGID_2_)" fill="#70BBBD" d="M86,23.1V3.6c0-2.5,5.9-2.3,5.9-2.3V0.1h-24v1.1c7.4,0,6.5,3,6.5,3
		s0.1,12.2,0.1,24.6c0,0,2.6-1.9,5.1-3.2C82.8,23.8,86,23.1,86,23.1"/>
	<path clip-path="url(#SVGID_2_)" fill="none" stroke="#70BBBD" stroke-width="0.25" stroke-miterlimit="10" d="M86,23.1V3.6
		c0-2.5,5.9-2.3,5.9-2.3V0.1h-24v1.1c7.4,0,6.5,3,6.5,3s0.1,12.2,0.1,24.6c0,0,2.6-1.9,5.1-3.2C82.8,23.8,86,23.1,86,23.1z"/>
	<path clip-path="url(#SVGID_2_)" fill="#70BBBD" d="M84.5,81.4h-17v1.1c7.4,0,6.5,3,6.5,3s0.1,14.5,0.1,26.9c0,0,2.5,0.9,6.2,0.6
		c4-0.3,5.4-1.7,5.4-1.7V102c-6.3,0.7-5.1-10.4-4.1-14C82.5,84.5,84.5,81.4,84.5,81.4"/>
	<path clip-path="url(#SVGID_2_)" fill="none" stroke="#70BBBD" stroke-width="0.25" stroke-miterlimit="10" d="M84.5,81.4h-17v1.1
		c7.4,0,6.5,3,6.5,3s0.1,14.5,0.1,26.9c0,0,2.5,0.9,6.2,0.6c4-0.3,5.4-1.7,5.4-1.7V102c-6.3,0.7-5.1-10.4-4.1-14
		C82.5,84.5,84.5,81.4,84.5,81.4z"/>
	<path clip-path="url(#SVGID_2_)" d="M0.1,84c0,0,19.5,3.4,49.8-9.1c0,0,1.2-4.5,3-10.2c3.7-12.2,11-31.9,27.7-40.2
		c24.5-12.3,17.5,14.8,6.4,24.2l0-1.6c0,0,11.1-11.7,8.4-21.4c-3-10.5-24.6,8.9-35.9,43.4c0,0,8.4-4.6,14-9.4l-0.1,1.8
		c0,0-11,8-14.7,9.8c0,0-10.5,26.4-14.4,30.3c0,0,8,1.3,14.9,5.4c5.5,3.3,15.8,6.4,22.2,5.1c5.7-1.1,14.4-6.8,16.8-12.6
		c0,0-6.3,16.6-25.5,17.5s-23.1-10.5-37.9-10.4S4.5,122.7,10.9,127c8.3,5.5,22.7-12.5,25.2-19.1c0,0,1.6-0.4,3.4,0.5
		c0,0-15.9,25.5-29.2,20.4c-7.6-2.9,1.2-26.1,29-27.1c0,0,8.4-17.4,9.9-24.6c0,0-25.6,10.2-37.8,10.6C0.1,88,0.1,84,0.1,84"/>
	<path clip-path="url(#SVGID_2_)" fill="none" stroke="#000200" stroke-width="0.25" stroke-miterlimit="10" d="M0.1,84
		c0,0,19.5,3.4,49.8-9.1c0,0,1.2-4.5,3-10.2c3.7-12.2,11-31.9,27.7-40.2c24.5-12.3,17.5,14.8,6.4,24.2l0-1.6c0,0,11.1-11.7,8.4-21.4
		c-3-10.5-24.6,8.9-35.9,43.4c0,0,8.4-4.6,14-9.4l-0.1,1.8c0,0-11,8-14.7,9.8c0,0-10.5,26.4-14.4,30.3c0,0,8,1.3,14.9,5.4
		c5.5,3.3,15.8,6.4,22.2,5.1c5.7-1.1,14.4-6.8,16.8-12.6c0,0-6.3,16.6-25.5,17.5s-23.1-10.5-37.9-10.4S4.5,122.7,10.9,127
		c8.3,5.5,22.7-12.5,25.2-19.1c0,0,1.6-0.4,3.4,0.5c0,0-15.9,25.5-29.2,20.4c-7.6-2.9,1.2-26.1,29-27.1c0,0,8.4-17.4,9.9-24.6
		c0,0-25.6,10.2-37.8,10.6C0.1,88,0.1,84,0.1,84z"/>
	<path clip-path="url(#SVGID_2_)" d="M216,54.1c-11.6,25.4-36,35.1-41.3,33c-5.3-2.1,7.5-21.4,8.5-27.4c1-6-5.9-9.1-5.9-9.1
		c2.2-4.9,3.1-8.3,3-10.6c-0.1-3-2.7-4.7-2.7-4.7s-1.6,0.5-3.1,5.7c-2,7.1,1.2,10.2,1.2,10.2c-8.1,16.6-23.1,31.4-27.4,31.4
		c-2.8,0,0.4-11.2,0.4-11.2c10.3-5.4,14.9-16.6,14.5-21c-0.1-1.3-4.3-1.6-7.1,0.3c-7.8,5.1-12.1,21.6-12.1,21.6
		c-2.8,0.8-10,5.4-10,5.4c0-4.8-7.6-11.9-7.6-11.9c3-5.4,5.5-12,5-14.6s-2.4-3.8-2.4-3.8s-2.9,0.9-4,7.6s0,11,0,11
		c-4.4,8.9-17.4,26.6-21.3,26.1c-3.2-0.4,6.1-11.8,6.8-13.9s-2.4-5.8-2.8-4.9s-4.1,5.4-4.1,5.4s-1.5-3.7-7.3-3.8
		c-9.4-0.1-13.8,11.8-14,14.3c0,0-1.9,11.2,2.7,11.2c3.9,0,17.6-19.8,17.6-19.8s-4.7,10.7,0.4,12.4c6.2,2.1,22.8-25.9,22.8-25.9
		c4.5,8.7,3.2,14,3.2,14s-3.6,2.6-6.8,6.2c-4.3,4.9-8.1,11.2-3.2,11.7c5.5,0.6,11.7-5.9,13.9-11.2c1.8-4.5,1.1-8.7,1.1-8.7
		c3.4-2.8,9.9-5.6,9.9-5.6s-1.2,9.8,3.6,10.2c5,0.4,14.1-9.5,20.6-18.4c5.1-6.9,8.5-13.4,8.5-13.4s3.1,1.4,3.3,3.5
		c0,0.7-5.1,8.4-7.2,15.1c-3,9.1-2.8,16.2,1.7,17.3c13.8,3.3,40.3-21.6,42.8-27.7C219.2,55.8,216,54.1,216,54.1 M161.5,51.9
		c2.3-1.4-2.3,13.2-11.9,17.8C149.6,69.7,157.8,54.2,161.5,51.9 M85.9,99.1c-3.1,0.5,5.8-21.7,11.9-22.3c3.7-0.3,4.5,2.8,4.5,2.8
		S89,98.6,85.9,99.1 M130.6,53.2c0,0-1.3,7.3-4.3,10.5C126.4,63.7,128.1,55.1,130.6,53.2 M119.4,98.1c-4.9,0.3,5.6-13.2,9.8-15.3
		C129.2,82.8,127.3,97.6,119.4,98.1 M179.5,40.1c0,0,0.4,2.8-2.5,8.9C177,49,177,43.5,179.5,40.1"/>
	<path clip-path="url(#SVGID_2_)" fill="none" stroke="#000200" stroke-width="0.25" stroke-miterlimit="10" d="M216,54.1
		c-11.6,25.4-36,35.1-41.3,33c-5.3-2.1,7.5-21.4,8.5-27.4c1-6-5.9-9.1-5.9-9.1c2.2-4.9,3.1-8.3,3-10.6c-0.1-3-2.7-4.7-2.7-4.7
		s-1.6,0.5-3.1,5.7c-2,7.1,1.2,10.2,1.2,10.2c-8.1,16.6-23.1,31.4-27.4,31.4c-2.8,0,0.4-11.2,0.4-11.2c10.3-5.4,14.9-16.6,14.5-21
		c-0.1-1.3-4.3-1.6-7.1,0.3c-7.8,5.1-12.1,21.6-12.1,21.6c-2.8,0.8-10,5.4-10,5.4c0-4.8-7.6-11.9-7.6-11.9c3-5.4,5.5-12,5-14.6
		s-2.4-3.8-2.4-3.8s-2.9,0.9-4,7.6s0,11,0,11c-4.4,8.9-17.4,26.6-21.3,26.1c-3.2-0.4,6.1-11.8,6.8-13.9s-2.4-5.8-2.8-4.9
		s-4.1,5.4-4.1,5.4s-1.5-3.7-7.3-3.8c-9.4-0.1-13.8,11.8-14,14.3c0,0-1.9,11.2,2.7,11.2c3.9,0,17.6-19.8,17.6-19.8
		s-4.7,10.7,0.4,12.4c6.2,2.1,22.8-25.9,22.8-25.9c4.5,8.7,3.2,14,3.2,14s-3.6,2.6-6.8,6.2c-4.3,4.9-8.1,11.2-3.2,11.7
		c5.5,0.6,11.7-5.9,13.9-11.2c1.8-4.5,1.1-8.7,1.1-8.7c3.4-2.8,9.9-5.6,9.9-5.6s-1.2,9.8,3.6,10.2c5,0.4,14.1-9.5,20.6-18.4
		c5.1-6.9,8.5-13.4,8.5-13.4s3.1,1.4,3.3,3.5c0,0.7-5.1,8.4-7.2,15.1c-3,9.1-2.8,16.2,1.7,17.3c13.8,3.3,40.3-21.6,42.8-27.7
		C219.2,55.8,216,54.1,216,54.1z M161.5,51.9c2.3-1.4-2.3,13.2-11.9,17.8C149.6,69.7,157.8,54.2,161.5,51.9z M85.9,99.1
		c-3.1,0.5,5.8-21.7,11.9-22.3c3.7-0.3,4.5,2.8,4.5,2.8S89,98.6,85.9,99.1z M130.6,53.2c0,0-1.3,7.3-4.3,10.5
		C126.4,63.7,128.1,55.1,130.6,53.2z M119.4,98.1c-4.9,0.3,5.6-13.2,9.8-15.3C129.2,82.8,127.3,97.6,119.4,98.1z M179.5,40.1
		c0,0,0.4,2.8-2.5,8.9C177,49,177,43.5,179.5,40.1z"/>
	<path clip-path="url(#SVGID_2_)" fill="#70BBBD" d="M86,26.9v43.6h10.9c0,0,2.8-0.1,4.8-2.1c2.4-2.6,2.3-6.3,2.3-6.3l0.3-12h1.6
		v22.4H67.5v-1.1c0,0,4.8,0.3,6.3-1.7c0.5-0.7,0.6-14.6,0.7-29.6c0,0,5.4-7.4,8.6-10.6C85,27.6,86,26.9,86,26.9"/>
	<path clip-path="url(#SVGID_2_)" fill="none" stroke="#70BBBD" stroke-width="0.25" stroke-miterlimit="10" d="M86,26.9v43.6h10.9
		c0,0,2.8-0.1,4.8-2.1c2.4-2.6,2.3-6.3,2.3-6.3l0.3-12h1.6v22.4H67.5v-1.1c0,0,4.8,0.3,6.3-1.7c0.5-0.7,0.6-14.6,0.7-29.6
		c0,0,5.4-7.4,8.6-10.6C85,27.6,86,26.9,86,26.9z"/>
	<path clip-path="url(#SVGID_2_)" fill="#70BBBD" d="M139.5,0.1H130l-12.9,64.2c0,0-0.7,3.6-3.5,5.3c-3.1,1.7-6.6,1.7-6.6,1.7l0,1.2
		h13.2l0.6-1c0,0-1.8-1.1-1.9-5c-0.1-2.3,4.4-21.3,4.4-21.3h14.9l6,22c0,0,2.3-8.3,7.9-15L139.5,0.1z M123.7,43.4l6.6-34.6l7.7,34.6
		H123.7z"/>
	<path clip-path="url(#SVGID_2_)" fill="none" stroke="#70BBBD" stroke-width="0.25" stroke-miterlimit="10" d="M139.5,0.1H130
		l-12.9,64.2c0,0-0.7,3.6-3.5,5.3c-3.1,1.7-6.6,1.7-6.6,1.7l0,1.2h13.2l0.6-1c0,0-1.8-1.1-1.9-5c-0.1-2.3,4.4-21.3,4.4-21.3h14.9
		l6,22c0,0,2.3-8.3,7.9-15L139.5,0.1z M123.7,43.4l6.6-34.6l7.7,34.6H123.7z"/>
	<path clip-path="url(#SVGID_2_)" fill="#70BBBD" d="M116.9,100.6c0,0,6.3,2.4,10.5-2.8l9.8,18.2c0,0,8.4-15,11-20.3
		c1.5-3,1.5-6.1-2.1-7c-1.5-0.4-4.1-0.3-4.1-0.3v-1.1h18.8v1.1c0,0-5.2,0-8,2.9C150.3,93.7,138,118,138,118s-0.3,29.3,0,31.6
		c0.1,1.2,3,2.8,6.4,2.8l0,1.2h-24.2v-1.1c0,0,4.7-0.1,6.8-2.5c0.4-0.4,0.1-31.7,0.1-31.7L116.9,100.6z"/>
	<path clip-path="url(#SVGID_2_)" fill="none" stroke="#70BBBD" stroke-width="0.25" stroke-miterlimit="10" d="M116.9,100.6
		c0,0,6.3,2.4,10.5-2.8l9.8,18.2c0,0,8.4-15,11-20.3c1.5-3,1.5-6.1-2.1-7c-1.5-0.4-4.1-0.3-4.1-0.3v-1.1h18.8v1.1c0,0-5.2,0-8,2.9
		C150.3,93.7,138,118,138,118s-0.3,29.3,0,31.6c0.1,1.2,3,2.8,6.4,2.8l0,1.2h-24.2v-1.1c0,0,4.7-0.1,6.8-2.5
		c0.4-0.4,0.1-31.7,0.1-31.7L116.9,100.6z"/>
	<path clip-path="url(#SVGID_2_)" fill="#70BBBD" d="M84.5,153.6h-17v-1.1c7.4,0,6.5-3,6.5-3s0.1-19,0.1-31.4c0,0,2.4,0.1,6-0.9
		c4.1-1.1,5.6-2.5,5.6-2.5v36.3c0,0,9.1,1.4,13.6-6.7c6.1-10.9,7.5-33.8,1-50.5c0,0,3.6,3.5,8.4,0c0,0,5.4,4.9,7,13.6
		c1.8,9.3,1.7,29.8-14.2,42.9C97.1,153.9,84.5,153.6,84.5,153.6"/>
	<path clip-path="url(#SVGID_2_)" fill="none" stroke="#70BBBD" stroke-width="0.25" stroke-miterlimit="10" d="M84.5,153.6h-17
		v-1.1c7.4,0,6.5-3,6.5-3s0.1-19,0.1-31.4c0,0,2.4,0.1,6-0.9c4.1-1.1,5.6-2.5,5.6-2.5v36.3c0,0,9.1,1.4,13.6-6.7
		c6.1-10.9,7.5-33.8,1-50.5c0,0,3.6,3.5,8.4,0c0,0,5.4,4.9,7,13.6c1.8,9.3,1.7,29.8-14.2,42.9C97.1,153.9,84.5,153.6,84.5,153.6z"/>
</g>
</svg>
